<?xml version="1.0" encoding="utf-8"?>
<!-- Generator: Adobe Illustrator 25.4.1, SVG Export Plug-In . SVG Version: 6.00 Build 0)  -->
<svg version="1.1" id="Capa_1" xmlns="http://www.w3.org/2000/svg" xmlns:xlink="http://www.w3.org/1999/xlink" x="0px" y="0px"
	 viewBox="0 0 600 35.7" style="enable-background:new 0 0 600 35.7;" xml:space="preserve">
<style type="text/css">
	.st0{fill:#FFFFFF;}
</style>
<g>
	<path class="st0" d="M0,18.4c11.6-2.9,23.1-6.2,34.8-8.5c4.4-0.8,9.2,0.9,13.9,1.5c8,1,16.1,1.6,24,3.3c10.6,2.3,20.2-3.3,30.4-3.2
		c10.1,0.1,19.2,4,27.7,9c5.8,3.4,12,3.6,17.8,0.6c4.6-2.4,10-3.3,14.9-5c3.3-1.1,6.4-2.9,9.7-3.6c3.2-0.8,6.7-0.7,10-0.9
		c2-0.1,3.9-0.2,5.9-0.1c2.9,0.1,6-0.3,8.6,0.6c3,1.1,5.4,1.5,8.4-0.1c1.4-0.8,3.9,0.7,5.9,0.8c7.9,0.1,15.9-0.1,23.8,0
		c1.8,0,4.2,0.4,5.4,1.5c3.3,3.3,7,3.6,10.7,1.6c3.1-1.7,5.2-0.9,7.6,1.2c1.8,1.6,3.5,2.4,5.8-0.2c1.4-1.5,4.6-1.4,7-1.7
		c4.7-0.6,9.8,0.1,14.1-1.5c6.4-2.4,12.7-2.2,19.2-2.9C312.9,10,320,6.5,327.1,4c2-0.7,3.9-2,6.5-2.2c-0.3,0.7-0.6,1.5-1.2,2.8
		c1.3-0.1,2.3-0.1,3.3-0.4c5.4-1.3,10.8-2.8,16.3-4.1c0.8-0.2,2.2,0.2,2.8,0.8c6.2,6.7,13.8,3.7,21,3.3c1.9-0.1,4-0.4,5.8,0
		c8,2,15.9,4.2,23.8,6.4c1.7,0.5,3.2,1.9,4.9,2.2c3.1,0.7,7.8,2.4,9.2,1c4.6-4.6,10.2-2.5,14-1.5c5.6,1.4,10.1,0.9,15.1-0.8
		c3.1-1.1,6.3-1.9,9.5-3c1.1-0.4,2.2-0.8,3.1-1.5c2.1-1.7,4.2-5.2,6-5c7.9,0.6,16.4-0.7,23.1,5.5c4.1,3.8,8.2,8.1,14.9,5.3
		c0.7-0.3,1.8,0.4,2.7,0.7c8.9,3,17.1,3.9,25-3.6c2.5-2.4,8.4-1.6,12.8-1.5c5.5,0.2,10.9,1.8,16.3,1.8c7.3,0,14.5-1,21.8-1.6
		c2.3-0.2,11.8,2.3,13.6,3.6c0.9,0.7,1.8,1.4,2.6,2.1c0,55.7,0-38.7,0,17c-200,0-400,0-600,0C0-22.9,0,72.8,0,18.4z"/>
</g>
</svg>
