<?xml version="1.0" encoding="utf-8"?>
<!-- Generator: Adobe Illustrator 25.4.1, SVG Export Plug-In . SVG Version: 6.00 Build 0)  -->
<svg version="1.1" id="Capa_1" xmlns="http://www.w3.org/2000/svg" xmlns:xlink="http://www.w3.org/1999/xlink" x="0px" y="0px"
	 viewBox="0 0 219.1 190.1" style="enable-background:new 0 0 219.1 190.1;" xml:space="preserve">
<style type="text/css">
	.st0{fill:#E83B5C;}
	.st1{display:none;}
	.st2{display:inline;fill:#111110;}
</style>
<g>
	<path class="st0" d="M103.4,17.2c3.3,3,8.3,3.1,11.6,0.1c20.6-18.2,43-22,65.5-11.6C204.8,17,222.1,47,218.7,73.8
		c-2.3,17.6-12.5,31.7-23.5,44.8c-22.8,27.1-50,49.3-78.9,69.5c-3.2,2.2-10.4,2.8-13.3,0.7C68.9,164.7,36,139,12.1,104
		C-13,67.1,2.7,16.9,43.2,3.5C66.5-4.2,86.3,1.4,103.4,17.2z"/>
	<g class="st1">
		<path class="st2" d="M155.9,8c6.9,0,14,1.7,21.1,5c21.5,10,36.6,36.8,33.7,59.9c-1.9,14.6-10,26.8-21.7,40.6
			c-19.5,23.1-44,44.7-77.3,68.1c-0.4,0.2-1.8,0.6-3.3,0.6c-0.6,0-1-0.1-1.2-0.1C77,160.6,42.8,134.8,18.7,99.5
			C7.8,83.4,5,63.9,11.1,45.9c5.7-16.7,18.3-29.4,34.6-34.8c6.1-2,12-3,17.6-3C75.8,8.1,87.1,13,97.9,23c3.1,2.9,7.1,4.4,11.3,4.4
			c4.1,0,8-1.5,11-4.2C131.7,13.1,143.8,8,155.9,8 M155.9,0c-14.1,0-27.9,5.8-41,17.3c-1.6,1.4-3.7,2.2-5.7,2.2
			c-2.1,0-4.2-0.8-5.9-2.3c-11.9-11-25.2-17.1-40-17.1c-6.4,0-13.1,1.1-20.1,3.4C2.7,16.9-13,67.1,12.1,104
			c23.9,35,56.8,60.7,90.8,84.8c1.3,0.9,3.3,1.3,5.5,1.3c2.9,0,6-0.7,7.9-2c28.8-20.2,56.1-42.4,78.9-69.5
			c11.1-13.1,21.3-27.2,23.5-44.8C222.1,47,204.8,17,180.4,5.7C172.2,1.9,164,0,155.9,0L155.9,0z"/>
	</g>
</g>
</svg>
