<?xml version="1.0" encoding="utf-8"?>
<!-- Generator: Adobe Illustrator 25.4.1, SVG Export Plug-In . SVG Version: 6.00 Build 0)  -->
<svg version="1.1" id="Capa_1" xmlns="http://www.w3.org/2000/svg" xmlns:xlink="http://www.w3.org/1999/xlink" x="0px" y="0px"
	 viewBox="0 0 1595.6 430.7" style="enable-background:new 0 0 1595.6 430.7;" xml:space="preserve">
<style type="text/css">
	.st0{opacity:0.3;}
	.st1{fill:#BDA498;}
</style>
<g>
	<g>
		<g class="st0">
			<g>
				<path class="st1" d="M271.5,177.1c-0.8-0.9-3.2-1-4.6-0.7c-7.5,1.9-14.9,3.8-22.2,6.2c-25.3,8.3-49.5,19.1-72.9,32.2
					c1,3.6,4.5,14.6,12,26c31.3-22.3,66.6-35.2,105.1-42.5C282.7,190.8,277.3,183.8,271.5,177.1z"/>
				<path class="st1" d="M263.3,167.1c2.2-0.6,4.9-1.7,6-3.4c16.2-24.8,21.4-51.8,15.5-80.7c-4.4-21.5-14.2-40-34.8-49.8
					c-23.9-11.4-48.4-9.7-72.1,0.9c-12.9,5.8-18.9,17-19.1,30.8c-0.1,6.7,1.3,13.5,2.3,20.2c0.8,5.6-0.5,10.1-5.1,13.4
					c-4.2,3-9,3.4-13.4,0.7c-2.4-1.5-4.4-4-6-6.4c-3.4-5.2-8.2-9.8-13.7-13.7c-2.4,12.1-5.5,25.9-7.7,30.8
					c-4.2,9.3-25.5,87.7,56.1,103.4c0,0,0,0.2,0.1,0.5c2.3-1.9,4.5-3.9,6.9-5.7C203.7,188.4,232.4,175.5,263.3,167.1z"/>
				<path class="st1" d="M297.9,210c-0.9-1-3.5-1.1-5.2-0.8c-37.5,6.3-73.4,17.4-107.9,33.4c6.2,8.9,14.9,17.8,26.8,23.4
					c17.9-10.1,36.8-17.5,56.7-22.1c0,0,0,0,0,0c6.7-13.3,17.6-24.5,31.8-31.3C299.5,211.8,298.7,210.9,297.9,210z"/>
			</g>
		</g>
		<g>
			<path class="st1" d="M233,166.4c7.6-14.2,12.6-28.8,10.2-45.1c-2.5-17.1-15.9-32-33.1-36C229.5,109.6,237,136.4,233,166.4z"/>
			<path class="st1" d="M139.6,158.9c-0.4,19.4,17.5,38.4,32.2,34.7C157.7,185.4,147.9,173.4,139.6,158.9z"/>
			<path class="st1" d="M219.9,286.1c-5.9-2.8-12.9-3.4-19.6-1c-11.9,4.2-18.8,16.1-17.1,28.1c1.1,7.6,5.5,15.2,15.1,20.9
				c24.9,7.3,41.6-14.2,34.9-33.1C230.9,294.1,226,288.9,219.9,286.1z"/>
			<path class="st1" d="M362.4,253.9c-5.3-12.5-19.4-18.9-32.4-14.4c-7,2.5-12.3,7.6-15.1,13.9c-4.9,11-2.3,25.3,12,34.7
				c25.5,8.3,42.8-13.5,36-32.8C362.8,254.9,362.6,254.4,362.4,253.9z"/>
			<path class="st1" d="M415.1,336.9l-1,0.8c-14.5,11.4-30.4,14.4-47.5,7.1c-4.1-1.8-8.1-3.8-12.1-6c34.6-13.3,52.5-51.7,40.2-86.9
				c-10.1-28.7-37.3-46.5-66.2-45.9c-0.1-0.2-0.3-0.4-0.4-0.6c4.6-0.2,8-0.5,11.5-0.6c19.8-0.3,39.6,0.3,59.1,4.1
				c4.5,0.9,8-1.4,8.6-5.5c0.6-4.3-1.4-7-5.7-8c-1.4-0.3-2.8-0.6-4.1-0.7c-23-2.4-46.1-3.6-69.2-1.2c-7.4,0.8-12.2-1.1-16.2-7.2
				c-3.6-5.4-8-10.3-12.4-15.8c1.9-0.5,2.7-0.8,3.5-0.9c13.6-0.5,27.3-1,40.9-1.4c3.7-0.1,7.3,0.4,11,0.4c3.5,0,5.7-1.6,5.9-5.3
				c0.2-3.5-1.6-5.6-5.1-6.2c-1.7-0.3-3.5-0.4-5.2-0.4c-13.6,0.6-27.3,1.2-40.9,1.8c-2.5,0.1-5,0.4-8.1,0.6c0.8-2.1,1.2-3.2,1.6-4.3
				c11-29.1,12.9-58.7,3.7-88.5C297.3,35,277.6,12.9,245.3,4C222-2.5,198.7-0.8,176,7c-22.1,7.7-36.7,22.6-41.6,46
				c-0.1,0.6-0.6,1.1-1,1.9c-2.5-1.3-4.8-2.5-7.2-3.7C103.1,40.1,79.5,38,55.7,48.5c-19.1,8.3-32.3,23-42.6,40.6
				c-19.3,33-17.1,68.4,6.1,98.7c3,3.9,6.2,7.6,9.4,11.6c-12.1,10.5-16,15.9-18.8,25.8c-11.2,38.8,15.7,76,56.1,77.5
				c24.9,0.9,45-9.7,63-25.7c2.6-2.3,5-4.7,7.9-7.4c1.4,2.1,2.5,3.6,3.4,5.3c1.1,2.2,2.3,4.3,3.4,6.5c-11.9,17.4-15.7,40.1-8.1,61.5
				c12.6,35.8,51.8,54.6,87.6,42.1c0.7-0.2,1.4-0.5,2.1-0.8c-1.2,3.3-2.5,6.6-3.8,9.9c-8,19.3-22.2,30-43.4,30.8l-0.9,0.3l-0.2,0.6
				l1.6,0.3c6.4,1.4,12.7,3.4,19.2,4.1c17.4,1.8,34-2.1,50.1-8.6c10-4,19.3-9.3,26.8-17.3c8.7-9.4,15.6-19.8,16.8-33.1l0.7-1.2
				l1.5,0.7c2.7,2.1,5.2,4.6,8.2,6.2c12.2,6.5,25.3,9.5,39.2,7.8c16.8-2,32-8.5,46.2-17.4c11.1-6.9,20.1-15.9,26.9-27.1
				c0.6-1,1.1-2.1,1.7-3.1L415.1,336.9z M178.6,365.1C178.6,365.1,178.6,365.1,178.6,365.1c-25.5-16.8-31.1-42-23.5-62
				c3.4-9,9.5-16.9,17.6-22.6c3.5-2.4,7.4-4.4,11.6-5.9c5.8-2.1,11.8-2.9,17.7-2.7c11.3,0.4,22.1,4.8,30.4,12.2
				c5.9,5.2,10.6,12,13.4,20C258.3,339.9,226.2,380.5,178.6,365.1z M284.6,346.5c-0.1,0.6-0.4,1.2-0.7,1.8c-0.6-0.2-1.3-0.3-1.7-0.7
				c-5-4.6-10.6-7.1-16.2-7.8c4-13.4,4-28.2-1-42.4c-2.9-8.3-7.2-15.6-12.6-21.9c-6.6-7.7-14.8-13.8-24-18c-15.5-7-33.6-8.3-51-2.2
				c-5.5,1.9-10.6,4.5-15.2,7.6c-2.9-4.8-5.7-9.7-8.6-14.5c-1.8-3-4.1-5.7-6.5-8.2c-6.6-7-15.4-6.5-21.1,1.3
				c-7.6,10.2-16.3,19.2-27.2,26c-13.9,8.7-28.7,12.8-44.9,6.9C36.8,268,27.8,246,35.6,229.5c2.9-6.3,8.1-9.5,14.7-10.5
				c2.1-0.3,4.2-0.2,6.3-0.3c6.5-0.2,11.2-3.5,12.8-8.9c1.7-5.7-0.3-10.6-5.3-14.8c-6.4-5.2-13.1-10.1-18.7-16
				c-13.8-14.6-21.6-31.6-19.1-52.4c3.3-26.5,26.8-53.4,51.5-58.3c20.7-4.1,47.3,7.1,58.9,24.7c1.6,2.4,3.6,4.9,6,6.4
				c4.4,2.7,9.2,2.3,13.4-0.7c4.6-3.3,5.9-7.8,5.1-13.4c-1-6.7-2.4-13.5-2.3-20.2c0.2-13.9,6.2-25.1,19.1-30.8
				c23.7-10.6,48.2-12.4,72.1-0.9c20.6,9.8,30.4,28.3,34.8,49.8c5.9,28.9,0.7,56-15.5,80.7c-1.1,1.7-3.8,2.8-6,3.4
				c-30.9,8.4-59.6,21.3-84.9,41.2c-2.5,1.9-4.8,4-7.2,6.1c-0.4,0.3-0.6,0.8-0.9,1.2c23.9-13.4,48.5-24.5,74.4-33
				c7.3-2.4,14.8-4.3,22.2-6.2c1.4-0.4,3.8-0.2,4.6,0.7c5.8,6.7,11.2,13.7,17.3,21.3c-41.7,7.9-79.8,22.4-113,48.3
				c2.2-1,4.4-1.9,6.6-2.9c35.2-16.6,72-28.1,110.3-34.6c1.7-0.3,4.3-0.2,5.2,0.8c0.8,0.9,1.5,1.8,2.3,2.7
				c-14.2,6.8-25.1,17.9-31.8,31.3c0,0,0,0,0,0c-4.4,8.8-6.9,18.5-7.2,28.5c-0.3,8.2,0.9,16.7,3.8,24.9c5,14.3,14.3,25.9,25.9,33.8
				C287.4,335.3,285.4,340.4,284.6,346.5z M282.2,267.1c1.7-10.7,7-20.6,15-28c0,0,0,0,0,0c4.6-4.3,10.2-7.7,16.5-10
				c0,0,0.1,0,0.1-0.1c11.1-3.9,22.7-3.5,32.9,0.4c12.9,4.8,23.6,15.1,28.6,29.2c12.5,35.8-19.5,76.4-67.1,61
				C286.7,305.5,279.4,285.2,282.2,267.1z"/>
		</g>
	</g>
	<g>
		<path class="st1" d="M1492,288.2c-1.3-3.4-1.9-7.7-1.9-12.9c0-3.2,1-7.3,2.9-12.3c1.9-5,4.4-10.3,7.3-16.1
			c2.9-5.7,6.2-11.5,9.9-17.2c3.7-5.7,7.2-10.9,10.7-15.5c3.4-4.6,6.6-8.3,9.4-11.2c2.8-2.9,5-4.3,6.5-4.3c2.8,0,4.7,1.2,5.8,3.7
			c1.1,2.5,1.5,5.9,1.3,10.1c-0.2,4.2-1,9-2.4,14.4c-1.4,5.4-3.2,10.8-5.3,16.2c-3.4,1-6.5,3.1-9.2,6.4c-2.7,3.2-4,7.5-4,12.7
			c0,2.5,0.3,4.9,1,7.1c-4.1,7-8.2,12.7-12.4,17.2c-4.2,4.5-8.1,6.7-11.8,6.7C1495.7,293.3,1493.2,291.6,1492,288.2z M1589.5,241.6
			c-0.2,0.2-0.3,0.5-0.3,0.7c-1.7,5.2-3.9,9.8-6.6,13.8c-2.7,4-5.5,7.4-8.4,10.2c-2.9,2.9-5.8,5-8.6,6.3c-2.8,1.4-5,2-6.5,2
			c-0.4,0-0.9-0.2-1.3-0.7c4.1-8.2,7.4-16.7,9.9-25.7c2.5-8.9,3.7-17.7,3.7-26.4c0-8.9-1.1-16.2-3.4-22c-2.3-5.7-5.1-10.3-8.4-13.8
			c-3.3-3.5-6.9-5.9-10.7-7.3c-3.8-1.4-7.1-2-9.9-2c-2.6,0-5.7,1.6-9.2,4.7c-3.6,3.1-6.9,6.5-10.2,10.2c-3.9,4.5-7.8,9.3-11.6,14.5
			c0.2-1.7,0.5-3.5,1-5.2c0.4-1.5,0.8-3,1-4.5c0.2-1.5,0.3-2.8,0.3-4.1c0-2.7-0.8-5.2-2.4-7.4s-3.6-4.2-6-5.8
			c-2.4-1.6-4.8-2.8-7.4-3.7c-2.6-0.9-4.8-1.3-6.8-1.3c-1.9,0-3.1,0.6-3.4,1.7s-0.5,2-0.5,2.8c0,6-1.2,14-3.7,24.2
			c-2.5,10.2-5.6,21.3-9.4,33.3c-3.8,12-7.9,24.6-12.4,37.8c-4.5,13.2-8.9,25.6-13.2,37.4c-4.3,11.8-8.2,22.5-11.8,32.2
			c-3.6,9.7-6.2,17.1-7.9,22.3c-0.9,2.7-0.6,5.8,0.8,9.1c1.4,3.3,3.4,6.4,6,9.3c2.6,2.8,5.3,5.3,8.2,7.3c2.9,2,5.5,3,7.9,3
			c0.6,0,1.6-0.1,2.7-0.4c1.2-0.2,1.8-0.9,1.8-1.9c0-9.2,1.6-19.7,4.7-31.4c3.1-11.8,6.5-22.8,10.2-33.1
			c3.7-10.3,7.1-18.7,10.2-25.3c3.1-6.6,4.7-9.2,4.7-8c0,0.5,0.2,2,0.6,4.7c0.4,2.6,1.5,5.4,3.2,8.4c1.7,3,4.3,5.6,7.6,8
			c3.3,2.4,7.9,3.5,13.7,3.5c5.8,0,11.8-2,18.1-6.1c6.2-4.1,12.2-9.7,17.8-16.9c2.4,1,4.8,1.5,7.4,1.5c5.6,0,10.8-1.4,15.7-4.3
			c4.8-2.8,9.1-6.2,12.8-10c3.7-3.8,6.7-7.8,9-11.9c2.4-4.1,3.9-7.3,4.5-9.5c1.1-4,1.8-7.4,2.3-10.4c0.4-2.7,0.3-5.1-0.3-7.3
			c-0.6-2.1-2.2-3.2-4.5-3.2C1590.3,240.8,1589.9,241.1,1589.5,241.6z M1371.8,288.2c-1.3-3.4-1.9-7.7-1.9-12.9
			c0-3.2,1-7.3,2.9-12.3c1.9-5,4.4-10.3,7.3-16.1c2.9-5.7,6.2-11.5,9.9-17.2c3.7-5.7,7.2-10.9,10.7-15.5c3.4-4.6,6.6-8.3,9.4-11.2
			c2.8-2.9,5-4.3,6.5-4.3c2.8,0,4.7,1.2,5.8,3.7c1.1,2.5,1.5,5.9,1.3,10.1c-0.2,4.2-1,9-2.4,14.4c-1.4,5.4-3.2,10.8-5.3,16.2
			c-3.4,1-6.5,3.1-9.2,6.4c-2.7,3.2-4,7.5-4,12.7c0,2.5,0.3,4.9,1,7.1c-4.1,7-8.2,12.7-12.4,17.2c-4.2,4.5-8.1,6.7-11.8,6.7
			C1375.5,293.3,1373.1,291.6,1371.8,288.2z M1469.3,241.6c-0.2,0.2-0.3,0.5-0.3,0.7c-1.7,5.2-3.9,9.8-6.6,13.8
			c-2.7,4-5.5,7.4-8.4,10.2c-2.9,2.9-5.8,5-8.6,6.3c-2.8,1.4-5,2-6.5,2c-0.4,0-0.9-0.2-1.3-0.7c4.1-8.2,7.4-16.7,9.9-25.7
			c2.5-8.9,3.7-17.7,3.7-26.4c0-8.9-1.1-16.2-3.4-22c-2.3-5.7-5.1-10.3-8.4-13.8c-3.3-3.5-6.9-5.9-10.7-7.3c-3.8-1.4-7.1-2-9.9-2
			c-2.6,0-5.7,1.6-9.2,4.7c-3.6,3.1-6.9,6.5-10.2,10.2c-3.9,4.5-7.8,9.3-11.6,14.5c0.2-1.7,0.5-3.5,1-5.2c0.4-1.5,0.8-3,1-4.5
			c0.2-1.5,0.3-2.8,0.3-4.1c0-2.7-0.8-5.2-2.4-7.4s-3.6-4.2-6-5.8c-2.4-1.6-4.8-2.8-7.4-3.7c-2.6-0.9-4.8-1.3-6.8-1.3
			c-1.9,0-3.1,0.6-3.4,1.7s-0.5,2-0.5,2.8c0,6-1.2,14-3.7,24.2c-2.5,10.2-5.6,21.3-9.4,33.3c-3.8,12-7.9,24.6-12.4,37.8
			c-4.5,13.2-8.9,25.6-13.2,37.4c-4.3,11.8-8.2,22.5-11.8,32.2c-3.6,9.7-6.2,17.1-7.9,22.3c-0.9,2.7-0.6,5.8,0.8,9.1
			c1.4,3.3,3.4,6.4,6,9.3c2.6,2.8,5.3,5.3,8.2,7.3c2.9,2,5.5,3,7.9,3c0.6,0,1.6-0.1,2.7-0.4c1.2-0.2,1.8-0.9,1.8-1.9
			c0-9.2,1.6-19.7,4.7-31.4c3.1-11.8,6.5-22.8,10.2-33.1c3.7-10.3,7.1-18.7,10.2-25.3c3.1-6.6,4.7-9.2,4.7-8c0,0.5,0.2,2,0.6,4.7
			c0.4,2.6,1.5,5.4,3.2,8.4c1.7,3,4.3,5.6,7.6,8c3.3,2.4,7.9,3.5,13.7,3.5c5.8,0,11.8-2,18.1-6.1c6.2-4.1,12.2-9.7,17.8-16.9
			c2.4,1,4.8,1.5,7.4,1.5c5.6,0,10.8-1.4,15.7-4.3c4.8-2.8,9.1-6.2,12.8-10c3.7-3.8,6.7-7.8,9-11.9c2.4-4.1,3.9-7.3,4.5-9.5
			c1.1-4,1.8-7.4,2.3-10.4c0.4-2.7,0.3-5.1-0.3-7.3c-0.6-2.1-2.2-3.2-4.5-3.2C1470.1,240.8,1469.8,241.1,1469.3,241.6z
			 M1245.8,289.4c-0.9-1.6-1.3-3.5-1.3-5.8c0-8.9,1.4-18.4,4.2-28.3c2.8-9.9,6.3-19,10.5-27.2c4.2-8.2,8.6-15,13.2-20.5
			c4.6-5.5,8.8-8.2,12.4-8.2c4.1,0,7.3,1.2,9.7,3.5c2.4,2.4,3.3,5,2.9,8c-0.6,3.5-2,7.9-4.2,13.2c-2.2,5.3-4.8,11-7.9,16.9
			c-3.1,6-6.5,12-10,18c-3.6,6.1-7,11.5-10.3,16.4c-3.3,4.8-6.4,8.7-9.2,11.7c-2.8,3-4.8,4.5-6.1,4.5
			C1247.9,291.8,1246.7,291,1245.8,289.4z M1350.5,239.7c-0.2,0.2-0.3,0.5-0.3,0.7c-1.7,5.2-4.1,10.9-7.3,17.1
			c-3.1,6.2-6.4,11.9-9.7,17.1c-3.3,5.2-6.6,9.6-9.9,13c-3.2,3.5-5.6,5.2-7.1,5.2c-1.1,0-2-0.7-2.7-2c-0.8-1.4-1.1-3.2-1.1-5.4
			c0-7.7,0.8-15.9,2.4-24.7c1.6-8.8,3.7-17.4,6.1-25.9c2.5-8.4,5.2-16.1,8.1-23.1c2.9-6.9,5.8-12.4,8.6-16.4
			c1.3-1.7,1.2-3.7-0.2-5.8c-1.4-2.1-3.5-4.1-6.3-6c-2.8-1.9-5.8-3.3-9-4.5s-6-1.7-8.4-1.7c-0.6,0-1.7,1.4-3.2,4.1
			c-1.5,2.7-3.2,6.5-5.2,11.2c-0.4-0.7-1.4-2.2-2.9-4.5c-1.5-2.2-3.5-4.5-6-6.7c-2.5-2.2-5.3-4.2-8.4-6c-3.1-1.7-6.6-2.6-10.5-2.6
			c-8.4,0-16.5,3.7-24.4,11c-7.9,7.3-14.8,16.3-20.8,27c-6,10.7-10.8,21.8-14.4,33.5c-3.6,11.7-5.3,21.8-5.3,30.5
			c0,6,0.9,11.6,2.7,16.9c1.8,5.3,4.4,10,7.6,14c3.2,4,7.1,7.1,11.5,9.5c4.4,2.4,9.2,3.5,14.4,3.5c2.4,0,5-1.1,7.9-3.3
			s5.9-5.1,8.9-8.7c3-3.6,6-7.6,8.9-12.1s5.5-9.1,7.9-13.8c0,13.6,2.3,23.3,6.8,29c4.5,5.7,11,8.6,19.4,8.6c5.4,0,10.7-2.6,16-7.8
			c5.3-5.2,10-11.2,14.1-18c4.1-6.8,7.5-13.4,10.3-19.7c2.8-6.3,4.5-10.6,5.2-12.8c1.1-4,1.8-7.4,2.3-10.4c0.4-2.7,0.3-5.2-0.3-7.4
			c-0.6-2.2-2.2-3.3-4.5-3.3C1351.2,239,1350.9,239.2,1350.5,239.7z M1155.7,153c0,2.5-0.6,6-1.9,10.6c-1.3,4.6-3.4,11-6.5,19.2
			c-2.2-1.7-3.5-3.4-4-5c-0.5-1.6-0.8-3.8-0.8-6.5c0-1.7,0.4-4,1.3-6.7c0.9-2.7,1.9-5.3,3.2-7.8c1.3-2.5,2.6-4.6,3.9-6.3
			c1.3-1.7,2.5-2.6,3.6-2.6C1155.2,147.8,1155.7,149.5,1155.7,153z M1221.6,240.1c-0.2,0.2-0.3,0.5-0.3,0.7
			c-1.7,5.2-4.2,10.9-7.4,17.1c-3.2,6.2-6.7,11.9-10.3,17.1c-3.7,5.2-7.2,9.6-10.5,13c-3.3,3.5-5.8,5.2-7.3,5.2
			c-1.1,0-2-0.7-2.7-2.1c-0.8-1.4-1.1-3.2-1.1-5.4c0-5.7,0.8-12.2,2.4-19.4c1.6-7.2,3.6-14.4,6-21.5c2.4-7.1,4.8-13.7,7.4-20
			c2.6-6.2,4.8-11.2,6.8-14.9c0.6-1,1-2.5,1-4.5c0-2-0.5-4.1-1.6-6.3c-1.1-2.2-2.5-4.3-4.2-6.2c-1.7-1.9-3.7-3.4-5.8-4.7
			c-2.2-1.2-4.3-1.9-6.5-1.9c-3.2,0-6.9,0.4-11,1.1c-4.1,0.7-7.8,1.1-11,1.1c-2.4,0-3.9-0.2-4.5-0.7c3.7-10.8,6.3-19.9,8.1-27.2
			c1.7-7.3,2.6-13,2.6-17.2c0-3-0.6-5.5-1.9-7.8c-1.3-2.2-2.8-4.1-4.5-5.5c-1.7-1.5-3.5-2.6-5.3-3.3c-1.8-0.7-3.4-1.1-4.7-1.1
			c-3.7,0-7.5,1.6-11.5,4.8c-4,3.2-7.6,7.1-10.8,11.7c-3.2,4.6-5.9,9.6-8.1,15.1c-2.2,5.5-3.2,10.4-3.2,14.9
			c0,5.2,1.1,10.9,3.4,16.9c2.3,6.1,7.3,10.6,15,13.6c-2.4,7.2-5,14.5-7.9,22c-2.9,7.4-5.7,14.1-8.2,20.1c-2.6,6-5.6,12.8-9,20.5
			c-0.6,2-0.8,4-0.5,6c0.3,2,0.8,3.7,1.5,5.2c0.6,1.5,1.4,2.5,2.3,3.2c0.9,0.6,1.6,0.4,2.3-0.6c4.3-6.2,9.3-15.3,15-27.2
			c5.7-11.9,12-26.8,18.9-44.6c2.2,0.7,4.4,1.1,6.8,1.1c3.7,0,7.2-0.5,10.5-1.5c3.3-1,5.2-1.5,5.7-1.5c0.4,0,0.6,0.2,0.5,0.6
			c-0.1,0.4-0.2,0.4-0.2,0.2c-0.9,1.7-2.7,6-5.5,12.7c-2.8,6.7-5.7,14.1-8.6,22.3c-2.9,8.2-5.5,16.3-7.9,24.4
			c-2.4,8.1-3.6,14.3-3.6,18.8c0,11.7,2.4,20.3,7.1,26c4.7,5.7,11.1,8.6,19.1,8.6c5.4,0,10.8-2.6,16.3-7.8c5.5-5.2,10.5-11.2,15-18
			c4.5-6.8,8.3-13.5,11.3-19.9c3-6.4,4.8-10.8,5.5-13c0.2-1.2,0.4-2.5,0.6-3.7c0.2-1.2,0.4-2.5,0.6-3.9c0.2-1.4,0.3-2.8,0.3-4.3
			c0-2.5-0.3-4.6-1-6.3c-0.6-1.7-2-2.6-4.2-2.6C1222.3,239.3,1222,239.6,1221.6,240.1z M1125,240.1c-0.2,0.2-0.3,0.5-0.3,0.7
			c-1.7,5.2-4.1,10.9-7.3,17.1c-3.1,6.2-6.4,11.9-9.7,17.1c-3.3,5.2-6.6,9.6-9.9,13c-3.2,3.5-5.6,5.2-7.1,5.2c-1.1,0-2-0.7-2.7-2
			c-0.8-1.4-1.1-3.2-1.1-5.4c0-7.7,0.8-16,2.4-24.9s3.7-17.5,6.1-25.9c2.5-8.3,5.2-15.9,8.1-22.9c2.9-6.9,5.8-12.4,8.6-16.4
			c1.3-1.7,1.2-3.7-0.2-5.8c-1.4-2.1-3.4-4.1-6.1-6c-2.7-1.9-5.7-3.3-9-4.5c-3.3-1.1-6.2-1.7-8.6-1.7c-0.6,0-1.7,1.4-3.2,4.3
			c-1.5,2.9-3.2,6.6-5.2,11.3c-1.9,4.7-4,10.2-6.3,16.4c-2.3,6.2-4.4,12.7-6.3,19.3c-2.4,7.2-5.1,14.5-8.1,22
			c-3,7.4-6.1,14.3-9.4,20.5c-3.2,6.2-6.5,11.3-9.9,15.3c-3.3,4-6.5,6-9.5,6c-1.1,0-2-0.7-2.7-2c-0.8-1.4-1.1-3.2-1.1-5.4
			c0-7.7,1.4-16.1,4.2-25.3c2.8-9.2,5.9-18.1,9.2-26.8c3.3-8.7,6.4-16.7,9.2-24c2.8-7.3,4.2-13.1,4.2-17.3c0-2-0.8-4-2.4-6.1
			c-1.6-2.1-3.6-4-6-5.8c-2.4-1.7-5-3.2-7.8-4.3c-2.8-1.1-5.4-1.7-7.8-1.7c-0.4,0-1.1,0.2-1.9,0.7c-0.9,0.5-1.3,1.7-1.3,3.7
			c0,1.5-0.8,4.7-2.3,9.7c-1.5,5-3.3,10.8-5.5,17.5c-2.2,6.7-4.5,14-7.1,21.8c-2.6,7.8-5,15.4-7.1,22.7c-2.2,7.3-4,14-5.5,19.9
			c-1.5,6-2.3,10.5-2.3,13.8c0,11.7,2.4,20.3,7.3,26c4.8,5.7,11.1,8.6,18.9,8.6c7.1,0,13.6-2.8,19.4-8.6
			c5.8-5.7,10.9-12.9,15.2-21.6c0.9,11.2,3.5,19,7.9,23.6c4.4,4.6,10.4,6.9,17.9,6.9c5.4,0,10.7-2.6,16-7.8c5.3-5.2,10-11.2,14.1-18
			c4.1-6.8,7.5-13.5,10.3-19.9c2.8-6.4,4.5-10.8,5.2-13c1.1-4,1.8-7.4,2.3-10.4c0.4-2.7,0.3-5.1-0.3-7.3c-0.6-2.1-2.2-3.2-4.5-3.2
			C1125.7,239.3,1125.4,239.6,1125,240.1z M903.4,289.4c-0.9-1.6-1.3-3.5-1.3-5.8c0-8.9,1.4-18.4,4.2-28.3c2.8-9.9,6.3-19,10.5-27.2
			c4.2-8.2,8.6-15,13.2-20.5c4.6-5.5,8.8-8.2,12.4-8.2c4.1,0,7.3,1.2,9.7,3.5c2.4,2.4,3.3,5,2.9,8c-0.6,3.5-2,7.9-4.2,13.2
			c-2.2,5.3-4.8,11-7.9,16.9c-3.1,6-6.5,12-10,18c-3.6,6.1-7,11.5-10.3,16.4c-3.3,4.8-6.4,8.7-9.2,11.7c-2.8,3-4.8,4.5-6.1,4.5
			C905.5,291.8,904.2,291,903.4,289.4z M1008,239.7c-0.2,0.2-0.3,0.5-0.3,0.7c-1.7,5.2-4.1,10.9-7.3,17.1
			c-3.1,6.2-6.4,11.9-9.7,17.1c-3.3,5.2-6.6,9.6-9.9,13c-3.2,3.5-5.6,5.2-7.1,5.2c-1.1,0-2-0.7-2.7-2c-0.8-1.4-1.1-3.2-1.1-5.4
			c0-7.7,0.8-15.9,2.4-24.7c1.6-8.8,3.7-17.4,6.1-25.9c2.5-8.4,5.2-16.1,8.1-23.1c2.9-6.9,5.8-12.4,8.6-16.4
			c1.3-1.7,1.2-3.7-0.2-5.8c-1.4-2.1-3.5-4.1-6.3-6c-2.8-1.9-5.8-3.3-9-4.5s-6-1.7-8.4-1.7c-0.6,0-1.7,1.4-3.2,4.1
			c-1.5,2.7-3.2,6.5-5.2,11.2c-0.4-0.7-1.4-2.2-2.9-4.5c-1.5-2.2-3.5-4.5-6-6.7c-2.5-2.2-5.3-4.2-8.4-6c-3.1-1.7-6.6-2.6-10.5-2.6
			c-8.4,0-16.5,3.7-24.4,11c-7.9,7.3-14.8,16.3-20.8,27c-6,10.7-10.8,21.8-14.4,33.5c-3.6,11.7-5.3,21.8-5.3,30.5
			c0,6,0.9,11.6,2.7,16.9c1.8,5.3,4.4,10,7.6,14c3.2,4,7.1,7.1,11.5,9.5c4.4,2.4,9.2,3.5,14.4,3.5c2.4,0,5-1.1,7.9-3.3
			s5.9-5.1,8.9-8.7c3-3.6,6-7.6,8.9-12.1s5.5-9.1,7.9-13.8c0,13.6,2.3,23.3,6.8,29c4.5,5.7,11,8.6,19.4,8.6c5.4,0,10.7-2.6,16-7.8
			c5.3-5.2,10-11.2,14.1-18c4.1-6.8,7.5-13.4,10.3-19.7c2.8-6.3,4.5-10.6,5.2-12.8c1.1-4,1.8-7.4,2.3-10.4c0.4-2.7,0.3-5.2-0.3-7.4
			c-0.6-2.2-2.2-3.3-4.5-3.3C1008.8,239,1008.5,239.2,1008,239.7z M883.3,161.2h-8.1c1.3-3,2.9-6.8,4.7-11.3
			c1.8-4.6,3.7-9.2,5.7-13.8c1.9-4.6,3.7-8.7,5.3-12.3c1.6-3.6,2.7-5.8,3.4-6.5c1.3-1.5,0.9-3.4-1.3-5.8c-2.2-2.4-4.9-4.4-8.2-6.1
			c-3.3-1.7-6.8-2.9-10.3-3.5c-3.6-0.6-6.1-0.1-7.6,1.7c-0.9,1-2.3,3.7-4.2,8.2c-1.9,4.5-4,9.6-6.3,15.4c-2.3,5.8-4.6,11.9-6.9,18.2
			c-2.4,6.3-4.4,11.8-6.1,16.6c-3.7,0-7-0.1-10-0.2c-3-0.1-5.9-0.4-8.6-0.7c-2.7-0.4-5.4-0.8-8.1-1.3c-2.7-0.5-5.7-1.2-8.9-2.2
			c-0.6,0-0.8,1.1-0.5,3.3c0.3,2.2,1,4.8,1.9,7.6c1,2.9,2.3,5.5,3.9,7.8c1.6,2.4,3.5,3.5,5.7,3.5h18.1c-4.1,11.7-7.8,22.8-11,33.3
			c-3.2,10.5-6,20.3-8.2,29.2c-2.3,8.9-4,17-5.3,24.2c-1.3,7.2-1.9,13.2-1.9,17.9c0,11.7,2.4,20.3,7.3,26c4.8,5.7,11.1,8.6,18.9,8.6
			c5.6,0,11-2.6,16.2-7.8c5.2-5.2,9.9-11.2,14.1-18c4.2-6.8,7.7-13.5,10.5-19.9c2.8-6.4,4.5-10.8,5.2-13c0.9-4,1.5-7.4,1.9-10.4
			c0.2-2.7,0.1-5.1-0.3-7.3c-0.4-2.1-1.8-3.2-4.2-3.2c-0.2,0-0.5,0.2-1,0.7c-0.2,0.2-0.3,0.5-0.3,0.7c-1.7,5.2-4.1,10.9-7.3,17.1
			c-3.1,6.2-6.4,11.9-9.9,17.1c-3.4,5.2-6.7,9.6-9.9,13c-3.1,3.5-5.4,5.2-6.9,5.2c-2.8,0-4.2-2.5-4.2-7.4c0-13.4,2.5-29.2,7.6-47.4
			c5.1-18.2,11.6-37.8,19.5-58.6c5,0,8.9,0.1,11.8,0.2c2.9,0.1,5.2,0.2,6.8,0.2s2.8,0.1,3.6,0.2c0.8,0.1,1.3,0.2,1.8,0.2
			c1.3,0,1.8-1,1.5-3c-0.3-2-1-4.2-2.1-6.7c-1.1-2.5-2.4-4.7-3.9-6.7C885.4,162.2,884.2,161.2,883.3,161.2z M801.5,186.3
			c-1.6-2.1-3.6-4-6-5.8c-2.4-1.7-4.9-3.2-7.6-4.3c-2.7-1.1-5.1-1.7-7.3-1.7c-0.4,0-1.2,0.3-2.4,0.9c-1.2,0.6-2.6,2-4.4,4.3
			c-1.7,2.2-3.6,5.7-5.5,10.4c-1.9,4.7-3.8,11.1-5.5,19.3c-1.5,5-3.3,10.8-5.5,17.4c-2.2,6.7-4.3,13-6.5,18.9
			c-2.4,6.9-4.8,14.1-7.4,21.5c0,2,0.5,4,1.6,6.1c1.1,2.1,2.4,3.2,3.9,3.2c0.2,0,0.7-0.2,1.5-0.6c0.8-0.4,1.8-1.5,3.1-3.5
			c1.3-2,2.8-5,4.5-9.1c1.7-4.1,3.7-10,5.8-17.6c2.2,10.2,4,19.1,5.5,26.7c1.5,7.7,2.3,15.2,2.3,22.6c0,8.4-0.7,15.7-2.1,21.9
			c-1.4,6.2-3.2,11.3-5.3,15.2c-2.2,4-4.6,6.9-7.3,8.7c-2.7,1.9-5.3,2.8-7.9,2.8c-5,0-8.4-1.5-10.5-4.6c-2-3.1-3.1-6.7-3.1-10.9
			c0-4.4,1.2-8.7,3.6-12.7c2.4-4,5.6-6.4,9.7-7.2c0.4,0,0.6-0.2,0.6-0.7c0-1-1.5-2.6-4.4-4.8c-2.9-2.2-6.2-3.3-9.9-3.3
			c-4.3,0-8.2,2.4-11.6,7.3c-3.4,4.8-5.2,10.2-5.2,16.2c0,5.2,0.9,10.1,2.7,14.7c1.8,4.6,4.3,8.6,7.4,11.9c3.1,3.3,6.7,6,10.8,7.8
			c4.1,1.9,8.4,2.8,12.9,2.8c5.2,0,10.7-1.4,16.6-4.3c5.9-2.9,11.4-7,16.3-12.5c5-5.5,9.1-12.2,12.4-20.1c3.3-7.9,5-17.1,5-27.5
			c0-5.7-0.6-11.1-1.8-16.2c-1.2-5.1-2.5-10.2-4-15.3c-1.5-5.1-2.9-10.2-4-15.3c-1.2-5.1-1.8-10.5-1.8-16.2c0-5,0.5-10.1,1.6-15.4
			c1.1-5.3,3.1-11.1,6.1-17.3c1.1-2,2.2-3,3.4-3.2c1.2-0.1,1.8-1.5,1.8-4.3C803.9,190.6,803.1,188.4,801.5,186.3z M721.7,193.6
			c0.3,2.7-0.1,6.1-1.3,10c-1.2,4-3,8.2-5.5,12.8c-2.5,4.6-5.3,8.7-8.6,12.5s-6.8,6.7-10.8,8.9c-4,2.2-8.1,3-12.4,2.2
			c1.9-6.2,4.2-12.3,6.9-18.4c2.7-6.1,5.6-11.5,8.7-16.4c3.1-4.8,6.4-8.7,9.7-11.5c3.3-2.8,6.5-4.3,9.5-4.3
			C720.1,189.5,721.3,190.8,721.7,193.6z M753.2,241.2c-1.1,3-2.9,7.4-5.5,13.2c-2.6,5.8-6.1,11.6-10.5,17.3
			c-4.4,5.7-9.7,10.7-15.8,15.1c-6.1,4.3-13.1,6.5-20.8,6.5c-4.7,0-8.6-1-11.5-3c-2.9-2-5.2-4.7-6.8-8s-2.6-7.3-2.9-11.8
			c-0.3-4.5-0.2-9.2,0.5-14.2c9.7,2.5,18.4,2.7,26.2,0.6s14.4-5.6,19.9-10.5c5.5-4.8,9.8-10.6,12.9-17.2c3.1-6.6,4.8-13.2,5-20
			c0-5.7-0.8-10.8-2.4-15.3c-1.6-4.5-3.8-8.3-6.6-11.4c-2.8-3.1-6-5.5-9.7-7.1c-3.7-1.6-7.4-2.4-11.3-2.4c-8.4,0-16.6,2.9-24.6,8.7
			c-8,5.8-15.1,13.2-21.5,22.1c-6.4,8.9-11.4,18.9-15.2,29.8c-3.8,10.9-5.7,21.3-5.7,31.3c0,7.4,1,14.4,2.9,20.8
			c1.9,6.5,4.7,12.2,8.4,17.1c3.7,5,8.2,8.9,13.6,11.7c5.4,2.8,11.5,4.3,18.4,4.3c10.8,0,20.4-2.8,28.8-8.4
			c8.4-5.6,15.5-12.1,21.3-19.5c5.8-7.4,10.3-14.8,13.6-22.1c3.2-7.3,5.2-12.6,5.8-15.8c0.9-4.7,1.1-8.3,0.8-10.8
			c-0.3-2.5-1.9-3.7-4.7-3.7C754.7,238.6,753.8,239.5,753.2,241.2z M634.9,333.6c-9.3-4.1-18-10.2-26.3-18.2
			c-8.3-8.1-15.9-17.5-22.9-28.5c-7-10.9-12.9-22-17.6-33.1c5.6,0,12-2,19.1-6c7.1-4,14.4-9.3,22-16c7.5-6.7,15-14.6,22.3-23.6
			c7.3-9.1,13.8-18.6,19.5-28.6c5.7-10,10.3-20.4,13.7-31.1c3.4-10.7,5.2-21.1,5.2-31.3c0-9.2-1.9-17.5-5.7-24.9
			c-3.8-7.4-8.5-13.8-14.1-19.2c-5.6-5.3-11.7-9.4-18.3-12.3c-6.6-2.8-12.7-4.3-18.3-4.3c-11,0-22.9,2.5-35.7,7.6
			c-12.8,5.1-25.7,11.7-38.6,19.7C526.4,92,514,101.1,502,111.1c-12,10-22.6,20.2-31.8,30.3c-9.3,10.2-16.7,19.8-22.3,29
			c-5.6,9.2-8.4,16.9-8.4,23.1c0,4.2,0.8,8.9,2.4,14.1s3.7,10,6.1,14.5c2.5,4.5,5.1,8.2,7.9,11.3c2.8,3.1,5.4,4.7,7.8,4.7
			c3,0,6.5-1.1,10.5-3.2c4-2.1,7.6-4.5,11-7.3c3.3-2.7,6.1-5.4,8.2-8c2.2-2.6,2.9-4.4,2.3-5.4c-0.4-0.2-1.4-0.1-2.9,0.6
			c-1.5,0.6-3.4,1.5-5.8,2.6c-2.4,1.1-5,2.1-7.8,3c-2.8,0.9-5.6,1.3-8.4,1.3c-1.7,0-3.3-0.4-4.8-1.1c-1.5-0.7-2.3-2-2.3-3.7
			c0-6.2,2.4-13.9,7.1-23.1c4.7-9.2,11-18.8,18.9-28.8c7.9-10,17-20,27.3-30c10.3-9.9,21.2-18.8,32.5-26.8
			c11.3-7.9,22.7-14.4,34.2-19.3c11.5-5,22.5-7.4,32.8-7.4c2.4,0,4.8,0.6,7.4,1.9c2.6,1.2,5,3,7.1,5.2c2.2,2.2,3.9,4.9,5.3,8
			c1.4,3.1,2.1,6.4,2.1,9.9c0,13.9-3,28.2-9,43c-6,14.8-13.2,28.3-21.5,40.7c-8.3,12.4-16.7,22.6-25.2,30.5
			c-8.5,7.9-15.3,11.9-20.5,11.9c-1.9,0-4.1-1.1-6.5-3.3c3.9-11.4,7.7-22.4,11.5-33.1c3.8-10.7,7.1-20.5,10-29.4
			c2.9-8.9,5.3-16.7,7.1-23.4c1.8-6.7,2.7-11.7,2.7-14.9c0-1.5-0.7-3.3-2.1-5.4c-1.4-2.1-3.1-4.2-5.2-6.1c-2-2-4.1-3.7-6.3-5
			c-2.2-1.4-4-2-5.5-2c-0.6,0-1.4,0.2-2.3,0.7c-0.9,0.5-1.3,1.7-1.3,3.7c0,5.7-1.8,14.4-5.3,26c-3.6,11.7-8,24.8-13.4,39.4
			c-5.4,14.6-11.2,29.8-17.4,45.6c-6.2,15.8-12.1,30.7-17.4,44.8c-5.4,14.1-9.9,26.7-13.4,37.6c-3.6,10.9-5.3,18.6-5.3,23.1
			c0,3,0.9,5.9,2.7,8.7c1.8,2.8,4.1,5.5,6.8,8c2.7,2.5,5.5,4.5,8.4,6c2.9,1.5,5.4,2.2,7.6,2.2c1.5,0,2.9-0.4,4-1.1
			c1.2-0.7,1.8-1.6,1.8-2.6c0-5.2,0.6-11.2,1.8-18c1.2-6.8,2.8-14.3,4.8-22.3c2-8.1,4.4-16.6,7.1-25.5c2.7-8.9,5.5-18.1,8.6-27.5
			c4.3,8.4,9.4,18.9,15.2,31.4c5.8,12.5,12.2,24.6,19.2,36.1c7,11.5,14.5,21.1,22.6,28.6c8.1,7.6,16.6,10.6,25.7,9.1
			c4.5-0.7,8.8-2.1,12.9-4.1c4.1-2,7.7-4.2,10.8-6.5c3.1-2.4,5.8-4.8,7.9-7.3c2.2-2.5,3.7-4.5,4.5-6c0.2-0.5,0.3-1.5,0.3-3
			s-0.5-2-1.6-1.5C653.7,338.4,644.2,337.7,634.9,333.6z"/>
	</g>
</g>
</svg>
