<?xml version="1.0" encoding="utf-8"?>
<!-- Generator: Adobe Illustrator 25.4.1, SVG Export Plug-In . SVG Version: 6.00 Build 0)  -->
<svg version="1.1" id="Capa_1" xmlns="http://www.w3.org/2000/svg" xmlns:xlink="http://www.w3.org/1999/xlink" x="0px" y="0px"
	 viewBox="0 0 180.6 841" style="enable-background:new 0 0 180.6 841;" xml:space="preserve">
<style type="text/css">
	.st0{display:none;}
	.st1{display:inline;fill:#BDA498;}
	.st2{fill:#BDA498;}
</style>
<g class="st0">
	<path class="st1" d="M141.9,264.7c-5.8,4.9-11.4,10.2-17.5,14.8c-13.2,10.1-20.7,23.3-22.3,40.3c-3.9,39.2-3.5,78.5-2,117.7
		c3.2,84.4,15.2,167.7,28.8,250.9c4.7,28.7,7,57.8,9.8,86.8c0.8,7.9-0.2,16-1.3,23.9c-3.8,26-21.3,41.5-46.6,41.9
		c-25.3,0.4-43.6-15.2-47.7-41.1c-3.4-21.1-1.7-42.3,1.3-63.3c6.1-42.8,13.3-85.4,19.5-128.2C75.7,526.8,83,444.8,80.8,362.2
		c-0.4-14.3-1.5-28.6-2.7-42.8c-1.3-16.8-9.1-29.9-22.1-39.7c-35.7-26.9-53.7-64-55.7-109.2C-2.1,118.6,11.4,71.3,42.3,30
		c4.5-6,9.7-11.5,15.3-16.4c21.7-19.1,46.9-18,67.9,2.5C148.9,39,163,67.5,171.9,99.1c10.5,37.6,12.5,75.4,0.7,113.2
		C166.3,232.4,156,249.4,141.9,264.7z"/>
</g>
<path class="st2" d="M130.1,694.3c-14.2-80-26.7-160.1-30-241.3c-1.5-37.8-2-75.5,2.1-113.2c1-9,10.7-22.3,15.8-29.6
	c1.1-1.1,2.3-2.2,3.6-3.3c19-15.5,29-35.6,28.8-59.5c-0.2-23.1-1-46.3-3.4-69.3c-4.5-43.6-10.3-87.1-15.5-130.6
	c-0.7-5.7-3-8.3-9.8-5.8c2.6,62,5.2,123.9,7.8,186.1c-4.3,0-7.5,0-10.8,0c-0.3-2.7-0.6-4.9-0.7-7c-3.9-57.6-7.8-115.2-11.6-172.8
	c-0.3-4.7-0.4-9.1-9.3-5.7c0,61.3,0,123.3,0,185.6c-5.1,0-8.3,0-13.5,0c0-62.5,0-124.5,0-185.8c-9.2-3.1-9,1.6-9.3,6.2
	c-3.8,58.2-7.7,116.3-11.7,174.5c-0.1,1.8-0.8,3.5-1.1,5.2c-3.5,0-6.5,0-10.3,0c2.6-62.6,5.2-124.5,7.8-186.6c-3.4,0-5.8,0-8.4,0
	c-0.6,2.8-1.2,5.2-1.5,7.6c-4.5,35.9-9.5,71.8-13.2,107.9C33,183.7,30,211,30.3,238.1c0.3,27.5,9.4,52.6,31.4,72.7
	c0.1,0.1,0.3,0.3,0.4,0.4l-0.4,0c4.9,7,14.8,19,15.6,28.2c1.2,13.7,2.4,27.4,2.8,41.2c2.3,79.5-5.3,158.3-17.6,236.8
	c-6.5,41.2-13.9,82.2-20.3,123.3c-3.1,20.1-4.9,40.5-1.3,60.8c4.3,25,23.3,39.9,49.7,39.5c26.3-0.4,44.5-15.3,48.4-40.3
	c1.2-7.6,2.2-15.4,1.4-23C137.4,749.9,135,721.9,130.1,694.3z"/>
</svg>
