<?xml version="1.0" encoding="utf-8"?>
<!-- Generator: Adobe Illustrator 25.4.1, SVG Export Plug-In . SVG Version: 6.00 Build 0)  -->
<svg version="1.1" id="Capa_1" xmlns="http://www.w3.org/2000/svg" xmlns:xlink="http://www.w3.org/1999/xlink" x="0px" y="0px"
	 viewBox="0 0 375 216" style="enable-background:new 0 0 375 216;" xml:space="preserve">
<style type="text/css">
	.st0{fill:#FFFFFF;}
	.st1{fill:none;stroke:#FFFFFF;stroke-linecap:round;stroke-linejoin:round;}
	.st2{fill:#F0F0F0;stroke:#212121;stroke-linecap:round;stroke-linejoin:round;}
	.st3{fill:#212121;stroke:#212121;stroke-linecap:round;stroke-linejoin:round;}
	.st4{fill:#BCA397;}
	.st5{fill:none;stroke:#7C6B65;stroke-linecap:round;stroke-linejoin:round;}
	.st6{fill:#7C6B65;}
	.st7{fill:none;stroke:#589442;stroke-linecap:round;stroke-linejoin:round;}
	.st8{fill:#FFFFFF;stroke:#FFFFFF;stroke-linecap:round;stroke-linejoin:round;}
	.st9{fill:none;stroke:#212121;stroke-linecap:round;stroke-linejoin:round;}
	.st10{fill:#212121;stroke:#212121;stroke-miterlimit:10;}
	.st11{fill:#F0F0F0;}
	.st12{fill:#E3E3E3;}
	.st13{fill:#FFDE00;stroke:#FFDE00;stroke-miterlimit:10;}
</style>
<path id="background" class="st0" d="M0,0h375v216H0V0z"/>
<path id="Line_2" class="st1" d="M234.8,203.5c3.2-1.4,6.2-3.2,8.9-5.4c2.2-1.7,4.2-3.7,6.5-5.4c8.2-6.5,19.4-7.7,28.7-2.9
	c3.9,1.9,6.5,5.5,10.4,7.5c1.6,0.8,3.7,0.5,5,1.4s0.7,1.2,1.5,1.6s2.2-0.1,3.2,0.2s3.3,2.1,4.8,2.8"/>
<path id="Line_1" class="st1" d="M205.5,203.5c-7.3-2.5-13.6-6.8-21.8-5.2s-14.9,3.2-22.5,1.8c-5.3-1.1-9.8-4.7-14.5-7.5
	s-8.6-5.9-12.9-8.6c-10.7-6.5-26.4-8.5-34.1,3.3c-1,1.5-1.8,3.3-2.9,4.8s-2,1.3-4,2.1s-3,3.1-5.3,4s-7-0.6-10.6,0.2
	s-4.1,3.1-5.1,4.8"/>
<g id="chair">
	<path class="st2" d="M238,121.7l20.8,81.8l-15.5-81.8"/>
	<path class="st3" d="M243.3,121.7H238l11.3,44.3c0.8-0.2,1.5-0.5,2.2-0.9L243.3,121.7z M210.5,139.3l-16.3,64.2l12.2-64
		 M230.2,121.7l-2.7,81.8l-2.5-81.8"/>
	<path class="st4" d="M204.5,131.1c5.4-0.2,10.9,1.8,14.9-8.6c3.7-8.7,11.2-27.4,13.1-31.8s4.1-6.8,11.6-6.8h20.1
		c10.9,0,6.1,10.3,3.4,16.8s-11.2,25.9-13.9,37.8s-2.6,20.2-15.8,20.2s-36.6,0.3-38.5-1.2s-0.9-15.6-0.9-19.8
		S199.2,131.3,204.5,131.1L204.5,131.1z"/>
	<path class="st5" d="M204.5,131.1c5.4-0.2,10.9,1.8,14.9-8.6c3.7-8.7,11.2-27.4,13.1-31.8s4.1-6.8,11.6-6.8h20.1
		c10.9,0,6.1,10.3,3.4,16.8s-11.2,25.9-13.9,37.8s-2.6,20.2-15.8,20.2s-36.6,0.3-38.5-1.2s-0.9-15.6-0.9-19.8
		S199.2,131.3,204.5,131.1L204.5,131.1z"/>
	<path class="st6" d="M200.8,158.3c5.5,1.1,25.5,0.8,37.4,0.8s13.2-8.3,16-20.4c2.8-12.1,11.3-31.6,14-38.3s7.1-16.4-3.4-17h-1.9
		c0,0,5.2-0.6,3.4,4.5s-14,33.8-15.4,37.9c-1,3.4-4.2,5.7-7.8,5.5l-13.7-0.2c-2.5,0-5.1,1.2-5.1,5.7v12.8h-23.5L200.8,158.3z"/>
	<path class="st7" d="M223.1,148.5v6.9"/>
</g>
<g id="on_the_table">
	<path class="st8" d="M144.2,108.3h27.6l2.8,11.6H147L144.2,108.3z"/>
	<path class="st9" d="M143.2,109.1h27.6l2.8,11.6H146L143.2,109.1z M157.8,114.9h-12.9 M161.8,112.9h-13.1 M166.8,112.9h-2.3"/>
	<path class="st2" d="M144.7,90.1h-2.8l-5.9,29.8h15.7C151.7,119.9,144.7,90.1,144.7,90.1z"/>
	<path class="st8" d="M182.4,109.1h-1.3l-2.2,10.8h5.7L182.4,109.1z M190,110.6h-1.2l-1.9,9.3h5L190,110.6L190,110.6z"/>
</g>
<g id="table">
	<path class="st2" d="M137.9,119.9l-21.3,83.6l15.9-83.6"/>
	<path class="st10" d="M132.5,119.9l-7.4,38.8l3-0.5l9.8-38.3L132.5,119.9z"/>
	<path class="st3" d="M225,119.9l21.2,83.6l-15.9-83.6"/>
	<path class="st11" d="M240.7,162.9v-40.7c0-2.4-1.2-2.3-4.1-2.3H128.4c-2.9,0-4.1-0.1-4.1,2.3v23.3c0,1.1,0.1,1.7,3.1,1.6l24.5-1
		c1.8,0,3.2,1,3.2,4.1s3.2,6.6,8.1,6.6s23.3-1.1,27.3-1.1s6.3-0.5,6.3,4.8s3.7,5.4,8.5,5.4l32.3-0.8
		C241.1,165,240.7,162.9,240.7,162.9L240.7,162.9z"/>
	<path class="st12" d="M240.7,123.7c0-2.3-1.2-2.2-4.1-2.2h-12.9c-27.2,8.2-57,9.8-81.6,0h-13.7c-2.9,0-4.1-0.1-4.1,2.2v22.5
		c0,1,2.1,0.6,5.1,0.5l22.5-0.9c1.8,0,3.2,1.9,3.2,4.9s3.2,6.3,8.1,6.3s23.3-1,27.3-1s6.3-0.5,6.3,4.6s3.7,5.2,8.5,5.2l32.3-0.8
		c3.5,0,3.1-2.1,3.1-2.1L240.7,123.7z"/>
	<path class="st9" d="M240.7,163v-40.7c0-2.4-1.2-2.3-4.1-2.3H128.4c-2.9,0-4.1-0.1-4.1,2.3v23.3c0,1.1,0.1,1.7,3.1,1.6l24.5-1
		c1.8,0,3.2,1,3.2,4.1s3.2,6.6,8.1,6.6s23.3-1.1,27.3-1.1s6.3-0.5,6.3,4.8s3.7,5.4,8.5,5.4l32.3-0.8
		C241.1,165.1,240.7,163,240.7,163L240.7,163z M196.8,141.2v-1.4 M196.8,160.5V143 M194.7,155.8V145 M155.3,141.9v-6.1 M155.3,151.9
		V144 M153.2,146.4v-7.2"/>
</g>
<path id="floor" class="st9" d="M318.8,203.5h3.2 M326.5,203.5h1.8 M59.8,203.5h254.7 M50.3,203.5h3.9"/>
<g id="ceiling">
	<path class="st9" d="M115.1,35.4c21.2-14.1,46.2-21.6,71.7-21.6c8.8,0,17.6,0.9,26.2,2.7 M109.5,39.3l2.2-1.5"/>
	<path class="st9" d="M179.3,14v6.3c0.1,0.3,0.3,0.6,0.2,0.9s-1.1,0.8-1.3,1.4s1.4,1.5,1.8,2.3s-1,1.4-1.4,2.3s0.2,0.7,0.5,1.2
		s0.2,2.3,0.2,3.3v7.4"/>
	<path class="st13" d="M191,45c0,6.5-5.2,11.7-11.7,11.7c-6.5,0-11.7-5.2-11.7-11.7c0,0,0,0,0,0c0-6.5,5.2-11.7,11.7-11.7
		C185.8,33.3,191,38.5,191,45C191,45,191,45,191,45z"/>
</g>
</svg>
