<?xml version="1.0" encoding="utf-8"?>
<!-- Generator: Adobe Illustrator 25.4.1, SVG Export Plug-In . SVG Version: 6.00 Build 0)  -->
<svg version="1.1" id="Capa_1" xmlns="http://www.w3.org/2000/svg" xmlns:xlink="http://www.w3.org/1999/xlink" x="0px" y="0px"
	 viewBox="0 0 334.4 364.9" style="enable-background:new 0 0 334.4 364.9;" xml:space="preserve">
<style type="text/css">
	.st0{opacity:0.3;}
	.st1{fill:#BDA498;}
	.st2{fill:none;}
</style>
<g class="st0">
	<g>
		<g class="st0">
			<g>
				<path class="st1" d="M190.4,176.3c-0.8-0.9-3.2-1-4.6-0.7c-7.5,1.9-14.9,3.8-22.2,6.2c-25.3,8.3-49.5,19.1-72.9,32.2
					c1,3.6,4.5,14.6,12,26c31.3-22.3,66.6-35.2,105.1-42.5C201.7,190,196.2,183,190.4,176.3z"/>
				<path class="st1" d="M182.3,166.4c2.2-0.6,4.9-1.7,6-3.4c16.2-24.8,21.4-51.8,15.5-80.7c-4.4-21.5-14.2-40-34.8-49.8
					c-23.9-11.4-48.4-9.7-72.1,0.9C84,39.1,78,50.4,77.8,64.2C77.7,71,79,77.7,80.1,84.4c0.8,5.6-0.5,10.1-5.1,13.4
					c-4.2,3-9,3.4-13.4,0.7c-2.4-1.5-4.4-4-6-6.4C52.2,87,47.5,82.4,42,78.5c-2.4,12.1-5.5,25.9-7.7,30.8
					c-4.2,9.3-25.5,87.7,56.1,103.4c0,0,0,0.2,0.1,0.5c2.3-1.9,4.5-3.9,6.9-5.7C122.6,187.6,151.4,174.8,182.3,166.4z"/>
				<path class="st1" d="M216.9,209.2c-0.9-1-3.5-1.1-5.2-0.8c-37.5,6.3-73.4,17.4-107.9,33.4c6.2,8.9,14.9,17.8,26.8,23.4
					c17.9-10.1,36.8-17.5,56.7-22.1l0,0c6.7-13.3,17.6-24.5,31.8-31.3C218.4,211,217.6,210.1,216.9,209.2z"/>
			</g>
		</g>
		<g>
			<path class="st1" d="M151.9,165.6c7.6-14.2,12.6-28.8,10.2-45.1c-2.5-17.1-15.9-32-33.1-36C148.4,108.8,155.9,135.6,151.9,165.6z
				"/>
			<path class="st1" d="M58.5,158.2c-0.4,19.4,17.5,38.4,32.2,34.7C76.7,184.6,66.8,172.6,58.5,158.2z"/>
			<path class="st1" d="M138.9,285.3c-5.9-2.8-12.9-3.4-19.6-1c-11.9,4.2-18.8,16.1-17.1,28.1c1.1,7.6,5.5,15.2,15.1,20.9
				c24.9,7.3,41.6-14.2,34.9-33.1C149.9,293.4,144.9,288.2,138.9,285.3z"/>
			<path class="st1" d="M281.3,253.2c-5.3-12.5-19.4-18.9-32.4-14.4c-7,2.5-12.3,7.6-15.1,13.9c-4.9,11-2.3,25.3,12,34.7
				c25.5,8.3,42.8-13.5,36-32.8C281.7,254.2,281.5,253.7,281.3,253.2z"/>
		</g>
	</g>
	<g>
		<path class="st2" d="M45,240.6c5.7-7.7,14.5-8.3,21.1-1.3c2.4,2.5,4.7,5.3,6.5,8.2c2.9,4.8,5.8,9.6,8.6,14.5
			c4.6-3.1,9.7-5.6,15.2-7.6c17.3-6.1,35.5-4.8,51,2.2c9.1,4.1,17.3,10.2,24,18c5.4,6.3,9.7,13.6,12.6,21.9
			c-2.9-8.2-4.1-16.7-3.8-24.9c0.3-10,2.8-19.7,7.2-28.5l0,0c6.7-13.3,17.6-24.5,31.8-31.3c-0.8-0.9-1.5-1.8-2.3-2.7
			c-0.9-1-3.5-1.1-5.2-0.8c-38.4,6.4-75.1,18-110.3,34.6c-2.2,1-4.4,1.9-6.6,2.9c33.2-25.9,71.2-40.5,113-48.3
			c-6.1-7.6-11.5-14.5-17.3-21.3c-0.8-0.9-3.2-1-4.6-0.7c-7.5,1.9-14.9,3.8-22.2,6.2c-25.9,8.5-50.5,19.6-74.4,33
			c0.3-0.4,0.5-0.9,0.9-1.2c2.4-2,4.8-4.1,7.2-6.1c25.3-19.9,54-32.8,84.9-41.2c2.2-0.6,4.9-1.7,6-3.4
			c16.2-24.8,21.4-51.8,15.5-80.7c-4.4-21.5-14.2-40-34.8-49.8c-23.9-11.4-48.4-9.7-72.1,0.9C84,39.1,78,50.4,77.8,64.2
			C77.7,71,79,77.7,80.1,84.4c0.8,5.6-0.5,10.1-5.1,13.4c-4.2,3-9,3.4-13.4,0.7c-2.4-1.5-4.4-4-6-6.4C44.7,75.5,20.1,64.5,0,67
			v207.7c6.1-1.6,12-4.4,17.8-8.1C28.6,259.9,37.4,250.9,45,240.6z"/>
		<path class="st2" d="M62.4,280.6c-1.2-2.2-2.3-4.3-3.4-6.5c-0.9-1.7-2-3.2-3.4-5.3c-2.9,2.7-5.3,5.1-7.9,7.4
			C33.6,288.8,18.1,298,0,301v63.2h67c-5.4-6.3-9.8-13.7-12.7-22C46.8,320.7,50.5,298,62.4,280.6z"/>
		<path class="st2" d="M185,339c5.6,0.6,11.1,3.2,16.2,7.8c0.4,0.4,1.1,0.5,1.7,0.7c0.2-0.6,0.6-1.2,0.7-1.8
			c0.8-6,2.8-11.2,6.3-15.3c-11.6-8-20.8-19.5-25.9-33.8C189,310.8,189,325.6,185,339z"/>
		<path class="st2" d="M164.6,303.4c-2.8-8-7.5-14.7-13.4-20c-8.4-7.5-19.1-11.8-30.4-12.2c-5.8-0.2-11.8,0.6-17.7,2.7
			c-4.2,1.5-8.1,3.5-11.6,5.9c-8.1,5.6-14.2,13.6-17.6,22.6c-7.5,19.9-2,45,23.1,61.7h40C160.9,354.6,173.2,327.9,164.6,303.4z"/>
		<path class="st2" d="M216.1,238.4c-8,7.4-13.3,17.3-15,28c-2.9,18,4.5,38.3,26,52.5c47.5,15.4,79.6-25.2,67.1-61
			c-4.9-14-15.7-24.3-28.6-29.2c-10.2-3.8-21.8-4.3-32.9-0.4c0,0-0.1,0-0.1,0.1C226.4,230.7,220.8,234.1,216.1,238.4L216.1,238.4z"
			/>
		<path class="st1" d="M55.6,92.2c1.6,2.4,3.6,4.9,6,6.4c4.4,2.7,9.2,2.3,13.4-0.7c4.6-3.3,5.9-7.8,5.1-13.4
			c-1-6.7-2.4-13.5-2.3-20.2c0.2-13.9,6.2-25.2,19-30.9c23.7-10.6,48.2-12.4,72.1-0.9c20.6,9.8,30.4,28.3,34.8,49.8
			c5.9,28.9,0.7,56-15.5,80.7c-1.1,1.7-3.8,2.8-6,3.4c-30.9,8.4-59.6,21.3-84.9,41.2c-2.5,1.9-4.8,4-7.2,6.1
			c-0.4,0.3-0.6,0.8-0.9,1.2c23.9-13.4,48.5-24.5,74.4-33c7.3-2.4,14.8-4.3,22.2-6.2c1.4-0.4,3.8-0.2,4.6,0.7
			c5.8,6.7,11.2,13.7,17.3,21.3c-41.7,7.9-79.8,22.4-113,48.3c2.2-1,4.4-1.9,6.6-2.9c35.2-16.6,72-28.1,110.3-34.6
			c1.7-0.3,4.3-0.2,5.2,0.8c0.8,0.9,1.5,1.8,2.3,2.7c-14.2,6.8-25.1,17.9-31.8,31.3l0,0c-4.4,8.8-6.9,18.5-7.2,28.5
			c-0.3,8.2,0.9,16.7,3.8,24.9c5,14.3,14.3,25.9,25.9,33.8c-3.5,4.1-5.5,9.2-6.3,15.3c-0.1,0.6-0.4,1.2-0.7,1.8
			c-0.6-0.2-1.3-0.3-1.7-0.7c-5-4.6-10.6-7.1-16.2-7.8c4-13.4,4-28.2-1-42.4c-2.9-8.3-7.2-15.6-12.6-21.9c-6.6-7.7-14.8-13.8-24-18
			c-15.5-7-33.6-8.3-51-2.2c-5.5,1.9-10.6,4.5-15.2,7.6c-2.9-4.8-5.7-9.7-8.6-14.5c-1.8-3-4.1-5.7-6.5-8.2c-6.6-7-15.4-6.5-21.1,1.3
			c-7.6,10.2-16.3,19.2-27.2,26c-5.8,3.6-11.7,6.4-17.8,8.1V301c18.1-2.9,33.6-12.2,47.7-24.8c2.6-2.3,5-4.7,7.9-7.4
			c1.4,2.1,2.5,3.6,3.4,5.3c1.1,2.2,2.3,4.3,3.4,6.5c-11.9,17.4-15.7,40.1-8.1,61.5c2.9,8.3,7.3,15.7,12.7,22H97
			c-25-16.7-30.5-41.8-23-61.7c3.4-9,9.5-16.9,17.6-22.6c3.5-2.4,7.4-4.4,11.6-5.9c5.8-2.1,11.8-2.9,17.7-2.7
			c11.3,0.4,22.1,4.8,30.4,12.2c5.9,5.2,10.6,12,13.4,20c8.6,24.5-3.7,51.2-27.6,60.7h172.5c9.4-6.5,17.2-14.7,23.2-24.7
			c0.6-1,1.1-2.1,1.7-3.1l-0.3-0.2l-1,0.8c-14.5,11.4-30.4,14.4-47.5,7.1c-4.1-1.8-8.1-3.8-12.1-6c34.6-13.3,52.5-51.7,40.2-86.9
			c-10.1-28.7-37.3-46.5-66.2-45.9c-0.1-0.2-0.3-0.4-0.4-0.6c4.6-0.2,8-0.5,11.5-0.6c19.8-0.3,39.6,0.3,59.1,4.1
			c4.5,0.9,8-1.4,8.6-5.5c0.6-4.3-1.4-7-5.7-8c-1.4-0.3-2.8-0.6-4.1-0.7c-23-2.4-46.1-3.6-69.2-1.2c-7.4,0.8-12.2-1.1-16.2-7.2
			c-3.6-5.4-8-10.3-12.4-15.8c1.9-0.5,2.7-0.8,3.5-0.9c13.6-0.5,27.3-1,40.9-1.4c3.7-0.1,7.3,0.4,11,0.4c3.5,0,5.7-1.6,5.9-5.3
			c0.2-3.5-1.6-5.6-5.1-6.2c-1.7-0.3-3.5-0.4-5.2-0.4c-13.6,0.6-27.3,1.2-40.9,1.8c-2.5,0.1-5,0.4-8.1,0.6c0.8-2.1,1.2-3.2,1.6-4.3
			c11-29.1,12.9-58.7,3.7-88.5c-9.6-31.4-29.4-53.6-61.7-62.5C141-3.2,117.6-1.6,94.9,6.3c-22.1,7.7-36.7,22.6-41.6,46
			c-0.1,0.6-0.6,1.1-1,1.9c-2.5-1.3-4.8-2.5-7.2-3.7C30.2,43.3,15.2,39.9,0,41.2V67C20.1,64.5,44.7,75.5,55.6,92.2z M232.7,228.4
			c0,0,0.1,0,0.1-0.1c11.1-3.9,22.7-3.5,32.9,0.4c12.9,4.8,23.6,15.1,28.6,29.2c12.5,35.8-19.5,76.4-67.1,61
			c-21.6-14.2-28.9-34.5-26-52.5c1.7-10.7,7-20.6,15-28l0,0C220.8,234.1,226.4,230.7,232.7,228.4z"/>
	</g>
</g>
</svg>
