<?xml version="1.0" encoding="utf-8"?>
<!-- Generator: Adobe Illustrator 25.4.1, SVG Export Plug-In . SVG Version: 6.00 Build 0)  -->
<svg version="1.1" id="Capa_1" xmlns="http://www.w3.org/2000/svg" xmlns:xlink="http://www.w3.org/1999/xlink" x="0px" y="0px"
	 viewBox="0 0 415.4 430.7" style="enable-background:new 0 0 415.4 430.7;" xml:space="preserve">
<style type="text/css">
	.st0{opacity:0.3;}
	.st1{fill:#FFFFFF;}
</style>
<g>
	<g class="st0">
		<g>
			<path class="st1" d="M272.3,177.1c-0.8-0.9-3.2-1-4.6-0.7c-7.5,1.9-14.9,3.8-22.2,6.2c-25.3,8.3-49.5,19.1-72.9,32.2
				c1,3.6,4.5,14.6,12,26c31.3-22.3,66.6-35.2,105.1-42.5C283.5,190.8,278,183.8,272.3,177.1z"/>
			<path class="st1" d="M264.1,167.1c2.2-0.6,4.9-1.7,6-3.4c16.2-24.8,21.4-51.8,15.5-80.7c-4.4-21.5-14.2-40-34.8-49.8
				c-23.9-11.4-48.4-9.7-72.1,0.9c-12.9,5.8-18.9,17-19.1,30.8c-0.1,6.7,1.3,13.5,2.3,20.2c0.8,5.6-0.5,10.1-5.1,13.4
				c-4.2,3-9,3.4-13.4,0.7c-2.4-1.5-4.4-4-6-6.4c-3.4-5.2-8.2-9.8-13.7-13.7c-2.4,12.1-5.5,25.9-7.7,30.8
				c-4.2,9.3-25.5,87.7,56.1,103.4c0,0,0,0.2,0.1,0.5c2.3-1.9,4.5-3.9,6.9-5.7C204.5,188.4,233.2,175.5,264.1,167.1z"/>
			<path class="st1" d="M298.7,210c-0.9-1-3.5-1.1-5.2-0.8c-37.5,6.3-73.4,17.4-107.9,33.4c6.2,8.9,14.9,17.8,26.8,23.4
				c17.9-10.1,36.8-17.5,56.7-22.1c0,0,0,0,0,0c6.7-13.3,17.6-24.5,31.8-31.3C300.2,211.8,299.5,210.9,298.7,210z"/>
		</g>
	</g>
	<g>
		<path class="st1" d="M233.8,166.4c7.6-14.2,12.6-28.8,10.2-45.1c-2.5-17.1-15.9-32-33.1-36C230.3,109.6,237.7,136.4,233.8,166.4z"
			/>
		<path class="st1" d="M140.3,158.9c-0.4,19.4,17.5,38.4,32.2,34.7C158.5,185.4,148.6,173.4,140.3,158.9z"/>
		<path class="st1" d="M220.7,286.1c-5.9-2.8-12.9-3.4-19.6-1c-11.9,4.2-18.8,16.1-17.1,28.1c1.1,7.6,5.5,15.2,15.1,20.9
			c24.9,7.3,41.6-14.2,34.9-33.1C231.7,294.1,226.8,288.9,220.7,286.1z"/>
		<path class="st1" d="M363.2,253.9c-5.3-12.5-19.4-18.9-32.4-14.4c-7,2.5-12.3,7.6-15.1,13.9c-4.9,11-2.3,25.3,12,34.7
			c25.5,8.3,42.8-13.5,36-32.8C363.6,254.9,363.4,254.4,363.2,253.9z"/>
		<path class="st1" d="M415.9,336.9l-1,0.8c-14.5,11.4-30.4,14.4-47.5,7.1c-4.1-1.8-8.1-3.8-12.1-6c34.6-13.3,52.5-51.7,40.2-86.9
			c-10.1-28.7-37.3-46.5-66.2-45.9c-0.1-0.2-0.3-0.4-0.4-0.6c4.6-0.2,8-0.5,11.5-0.6c19.8-0.3,39.6,0.3,59.1,4.1
			c4.5,0.9,8-1.4,8.6-5.5c0.6-4.3-1.4-7-5.7-8c-1.4-0.3-2.8-0.6-4.1-0.7c-23-2.4-46.1-3.6-69.2-1.2c-7.4,0.8-12.2-1.1-16.2-7.2
			c-3.6-5.4-8-10.3-12.4-15.8c1.9-0.5,2.7-0.8,3.5-0.9c13.6-0.5,27.3-1,40.9-1.4c3.7-0.1,7.3,0.4,11,0.4c3.5,0,5.7-1.6,5.9-5.3
			c0.2-3.5-1.6-5.6-5.1-6.2c-1.7-0.3-3.5-0.4-5.2-0.4c-13.6,0.6-27.3,1.2-40.9,1.8c-2.5,0.1-5,0.4-8.1,0.6c0.8-2.1,1.2-3.2,1.6-4.3
			c11-29.1,12.9-58.7,3.7-88.5C298.1,35,278.4,12.9,246,4c-23.2-6.4-46.6-4.8-69.3,3.1c-22.1,7.7-36.7,22.6-41.6,46
			c-0.1,0.6-0.6,1.1-1,1.9c-2.5-1.3-4.8-2.5-7.2-3.7C103.8,40.1,80.3,38,56.4,48.5c-19.1,8.3-32.3,23-42.6,40.6
			c-19.3,33-17.1,68.4,6.1,98.7c3,3.9,6.2,7.6,9.4,11.6c-12.1,10.5-16,15.9-18.8,25.8c-11.2,38.8,15.7,76,56.1,77.5
			c24.9,0.9,45-9.7,63-25.7c2.6-2.3,5-4.7,7.9-7.4c1.4,2.1,2.5,3.6,3.4,5.3c1.1,2.2,2.3,4.3,3.4,6.5c-11.9,17.4-15.7,40.1-8.1,61.5
			c12.6,35.8,51.8,54.6,87.6,42.1c0.7-0.2,1.4-0.5,2.1-0.8c-1.2,3.3-2.5,6.6-3.8,9.9c-8,19.3-22.2,30-43.4,30.8l-0.9,0.3l-0.2,0.6
			l1.6,0.3c6.4,1.4,12.7,3.4,19.2,4.1c17.4,1.8,34-2.1,50.1-8.6c10-4,19.3-9.3,26.8-17.3c8.7-9.4,15.6-19.8,16.8-33.1l0.7-1.2
			l1.5,0.7c2.7,2.1,5.2,4.6,8.2,6.2c12.2,6.5,25.3,9.5,39.2,7.8c16.8-2,32-8.5,46.2-17.4c11.1-6.9,20.1-15.9,26.9-27.1
			c0.6-1,1.1-2.1,1.7-3.1L415.9,336.9z M179.4,365.1C179.4,365.1,179.4,365.1,179.4,365.1c-25.5-16.8-31.1-42-23.5-62
			c3.4-9,9.5-16.9,17.6-22.6c3.5-2.4,7.4-4.4,11.6-5.9c5.8-2.1,11.8-2.9,17.7-2.7c11.3,0.4,22.1,4.8,30.4,12.2
			c5.9,5.2,10.6,12,13.4,20C259,339.9,226.9,380.5,179.4,365.1z M285.3,346.5c-0.1,0.6-0.4,1.2-0.7,1.8c-0.6-0.2-1.3-0.3-1.7-0.7
			c-5-4.6-10.6-7.1-16.2-7.8c4-13.4,4-28.2-1-42.4c-2.9-8.3-7.2-15.6-12.6-21.9c-6.6-7.7-14.8-13.8-24-18c-15.5-7-33.6-8.3-51-2.2
			c-5.5,1.9-10.6,4.5-15.2,7.6c-2.9-4.8-5.7-9.7-8.6-14.5c-1.8-3-4.1-5.7-6.5-8.2c-6.6-7-15.4-6.5-21.1,1.3
			c-7.6,10.2-16.3,19.2-27.2,26c-13.9,8.7-28.7,12.8-44.9,6.9C37.6,268,28.6,246,36.4,229.5c2.9-6.3,8.1-9.5,14.7-10.5
			c2.1-0.3,4.2-0.2,6.3-0.3c6.5-0.2,11.2-3.5,12.8-8.9c1.7-5.7-0.3-10.6-5.3-14.8c-6.4-5.2-13.1-10.1-18.7-16
			c-13.8-14.6-21.6-31.6-19.1-52.4c3.3-26.5,26.8-53.4,51.5-58.3c20.7-4.1,47.3,7.1,58.9,24.7c1.6,2.4,3.6,4.9,6,6.4
			c4.4,2.7,9.2,2.3,13.4-0.7c4.6-3.3,5.9-7.8,5.1-13.4c-1-6.7-2.4-13.5-2.3-20.2c0.2-13.9,6.2-25.1,19.1-30.8
			c23.7-10.6,48.2-12.4,72.1-0.9c20.6,9.8,30.4,28.3,34.8,49.8c5.9,28.9,0.7,56-15.5,80.7c-1.1,1.7-3.8,2.8-6,3.4
			c-30.9,8.4-59.6,21.3-84.9,41.2c-2.5,1.9-4.8,4-7.2,6.1c-0.4,0.3-0.6,0.8-0.9,1.2c23.9-13.4,48.5-24.5,74.4-33
			c7.3-2.4,14.8-4.3,22.2-6.2c1.4-0.4,3.8-0.2,4.6,0.7c5.8,6.7,11.2,13.7,17.3,21.3c-41.7,7.9-79.8,22.4-113,48.3
			c2.2-1,4.4-1.9,6.6-2.9c35.2-16.6,72-28.1,110.3-34.6c1.7-0.3,4.3-0.2,5.2,0.8c0.8,0.9,1.5,1.8,2.3,2.7
			c-14.2,6.8-25.1,17.9-31.8,31.3c0,0,0,0,0,0c-4.4,8.8-6.9,18.5-7.2,28.5c-0.3,8.2,0.9,16.7,3.8,24.9c5,14.3,14.3,25.9,25.9,33.8
			C288.2,335.3,286.1,340.4,285.3,346.5z M283,267.1c1.7-10.7,7-20.6,15-28c0,0,0,0,0,0c4.6-4.3,10.2-7.7,16.5-10c0,0,0.1,0,0.1-0.1
			c11.1-3.9,22.7-3.5,32.9,0.4c12.9,4.8,23.6,15.1,28.6,29.2c12.5,35.8-19.5,76.4-67.1,61C287.5,305.5,280.2,285.2,283,267.1z"/>
	</g>
</g>
</svg>
