<?xml version="1.0" encoding="utf-8"?>
<!-- Generator: Adobe Illustrator 25.4.1, SVG Export Plug-In . SVG Version: 6.00 Build 0)  -->
<svg version="1.1" id="Capa_1" xmlns="http://www.w3.org/2000/svg" xmlns:xlink="http://www.w3.org/1999/xlink" x="0px" y="0px"
	 viewBox="0 0 218.6 207.9" style="enable-background:new 0 0 218.6 207.9;" xml:space="preserve">
<style type="text/css">
	.st0{fill:#FAB510;}
</style>
<g>
	<path class="st0" d="M38.7,198.2c2-12,4.2-24.6,6.4-37.2c1.4-8.2,3.1-16.4,4.2-24.6c0.2-1.8-0.9-4.5-2.3-5.8
		C32.7,116.7,18.4,103,4.3,89c-2.1-2.1-4.1-5.2-4.3-8c-0.3-4.4,2.8-7.2,7.4-7.8c17.8-2.6,35.5-5.6,53.4-7.6
		C69,64.7,74,62.1,77.6,54.1c7-16.1,15.4-31.7,23.2-47.5c1.8-3.7,4-6.6,8.5-6.6c4.5,0,6.7,2.9,8.5,6.6c8.6,17.5,17.3,34.8,25.8,52.4
		c1.7,3.5,3.7,5.1,7.7,5.7c19.3,2.5,38.5,5.5,57.8,8.3c4.2,0.6,7.9,1.7,9.2,6.3c1.3,4.4-1.3,7.2-4.1,10
		c-14.2,13.8-28.4,27.7-42.7,41.4c-2.2,2.1-2.8,4-2.2,7c3.6,19.6,6.9,39.3,10.3,59c0.7,3.8,0.6,7.4-2.9,9.9
		c-3.6,2.6-7.2,1.6-10.8-0.3c-17.7-9.3-35.4-18.5-53-27.9c-2.7-1.4-4.6-1.4-7.3,0C87.8,187.7,70,197,52.1,206.3
		C44.7,210.1,38.4,206.6,38.7,198.2z"/>
</g>
</svg>
